<?xml version="1.0" encoding="UTF-8" standalone="no"?>
<!DOCTYPE svg PUBLIC "-//W3C//DTD SVG 1.1//EN" "http://www.w3.org/Graphics/SVG/1.1/DTD/svg11.dtd">
<svg width="100%" height="100%" viewBox="0 0 2453 1774" version="1.1" xmlns="http://www.w3.org/2000/svg" xmlns:xlink="http://www.w3.org/1999/xlink" xml:space="preserve" xmlns:serif="http://www.serif.com/" style="fill-rule:evenodd;clip-rule:evenodd;">
    <g id="Artboard1" transform="matrix(0.970813,0,0,1.02209,-140.492,-108.837)">
        <rect x="144.716" y="106.485" width="2525.9" height="1734.96" style="fill:none;"/>
        <g transform="matrix(1.7086,0,0,2.29461,16.6893,-1433.77)">
            <path d="M132.245,741.486L163.247,687.799L194.245,741.486L163.243,725.077L132.245,741.486" style="fill-rule:nonzero;"/>
        </g>
        <g transform="matrix(1.7086,0,0,2.29461,1916.17,-1433.77)">
            <path d="M132.245,741.486L163.247,687.799L194.245,741.486L163.243,725.077L132.245,741.486" style="fill-rule:nonzero;"/>
        </g>
        <g transform="matrix(5.718e-17,1.62288,-2.41582,1.62933e-16,4259.71,1261.2)">
            <path d="M132.245,741.486L163.247,687.799L194.245,741.486L163.243,725.077L132.245,741.486" style="fill-rule:nonzero;"/>
        </g>
        <g transform="matrix(9.10382,0,0,9.63949,-1160.91,299.518)">
            <path d="M159.99,127.248L403.135,127.248" style="fill:none;fill-rule:nonzero;stroke:black;stroke-width:0.94px;"/>
        </g>
        <g transform="matrix(0,9.63949,10.1487,0,-1679,-906.333)">
            <path d="M117.895,194.568L252.151,194.568" style="fill:none;fill-rule:nonzero;stroke:black;stroke-width:0.89px;"/>
        </g>
        <g transform="matrix(0,9.63949,10.1487,0,220.5,-2710.53)">
            <path d="M305.062,194.568L439.318,194.568" style="fill:none;fill-rule:nonzero;stroke:black;stroke-width:0.89px;"/>
        </g>
        <g transform="matrix(10.1487,0,0,9.63949,-1582.13,-978.099)">
            <path d="M362.309,253.247C207.167,253.247 189.929,197.004 189.936,133.79M194.74,253.247C349.881,253.247 367.119,197.004 367.114,133.789" style="fill:none;fill-rule:nonzero;stroke:black;stroke-width:0.89px;"/>
        </g>
        <g transform="matrix(1.03018,0,0,0.978383,280.953,1655.46)">
            <text x="0px" y="0px" style="font-family:'Helvetica';font-size:78.83px;">Requirements</text>
            <g transform="matrix(78.83,0,0,78.83,223.518,78.83)">
            </g>
            <text x="0px" y="78.83px" style="font-family:'Helvetica';font-size:78.83px;">Phase</text>
        </g>
        <g transform="matrix(1.03018,0,0,0.978383,1003.99,1655.46)">
            <text x="0px" y="0px" style="font-family:'Helvetica';font-size:78.83px;">Dev<tspan x="138.214px " y="0px ">e</tspan>lopment</text>
            <g transform="matrix(78.83,0,0,78.83,223.518,78.83)">
            </g>
            <text x="0px" y="78.83px" style="font-family:'Helvetica';font-size:78.83px;">Phase</text>
        </g>
        <g transform="matrix(1.03018,0,0,0.978383,1774.26,1655.46)">
            <text x="0px" y="0px" style="font-family:'Helvetica';font-size:78.83px;">Deployment</text>
            <g transform="matrix(0.99988,0,0,1,0,0)">
                <g transform="matrix(78.8395,0,0,78.8395,223.545,78.8395)">
                </g>
                <text x="0px" y="78.839px" style="font-family:'Helvetica';font-size:78.839px;">Phase</text>
            </g>
        </g>
        <g transform="matrix(1.69083,-2.05607,2.16495,1.60577,1858.87,973.849)">
            <g>
                <text x="0px" y="0px" style="font-family:'Helvetica';font-size:29.563px;">C</text>
            </g>
        </g>
        <g transform="matrix(1.5358,-2.16297,2.27749,1.45858,1896.16,927.688)">
            <g>
                <text x="0px" y="0px" style="font-family:'Helvetica';font-size:29.564px;">o</text>
            </g>
        </g>
        <g transform="matrix(1.40315,-2.24276,2.36154,1.33255,1923.07,890.169)">
            <g>
                <text x="0px" y="0px" style="font-family:'Helvetica';font-size:29.564px;">s</text>
            </g>
        </g>
        <g transform="matrix(1.30457,-2.29579,2.41737,1.23895,1944.55,855.707)">
            <g>
                <text x="0px" y="0px" style="font-family:'Helvetica';font-size:29.563px;">t</text>
            </g>
        </g>
        <g transform="matrix(1.12922,-2.37809,2.50405,1.07243,1966.48,815.156)">
            <g>
                <text x="0px" y="0px" style="font-family:'Helvetica';font-size:29.565px;">o</text>
            </g>
        </g>
        <g transform="matrix(1.02681,-2.41961,2.54775,0.975158,1985.95,774.66)">
            <g>
                <text x="0px" y="0px" style="font-family:'Helvetica';font-size:29.564px;">f</text>
            </g>
        </g>
        <g transform="matrix(0.844368,-2.4824,2.61388,0.801905,2002.89,732.701)">
            <g>
                <text x="0px" y="0px" style="font-family:'Helvetica';font-size:29.565px;">C</text>
            </g>
        </g>
        <g transform="matrix(0.705684,-2.52114,2.65466,0.670212,2021.34,677.903)">
            <g>
                <text x="0px" y="0px" style="font-family:'Helvetica';font-size:29.564px;">h</text>
            </g>
        </g>
        <g transform="matrix(0.594442,-2.54689,2.68177,0.564519,2033.48,634.301)">
            <g>
                <text x="0px" y="0px" style="font-family:'Helvetica';font-size:29.565px;">a</text>
            </g>
        </g>
        <g transform="matrix(0.492254,-2.56647,2.70239,0.467491,2043.75,591.491)">
            <g>
                <text x="0px" y="0px" style="font-family:'Helvetica';font-size:29.564px;">n</text>
            </g>
        </g>
        <g transform="matrix(0.399651,-2.58094,2.71762,0.379567,2052.02,548.524)">
            <g>
                <text x="0px" y="0px" style="font-family:'Helvetica';font-size:29.566px;">g</text>
            </g>
        </g>
        <g transform="matrix(0.316132,-2.5913,2.72859,0.300239,2059.06,504.116)">
            <g>
                <text x="0px" y="0px" style="font-family:'Helvetica';font-size:29.567px;">e</text>
            </g>
        </g>
        <g transform="matrix(0.246391,-2.59818,2.73576,0.233996,2063.82,462.045)">
            <g>
                <text x="0px" y="0px" style="font-family:'Helvetica';font-size:29.566px;">s</text>
            </g>
        </g>
        <g transform="matrix(0.10751,2.60669,-2.74473,0.102116,412.688,394.446)">
            <g>
                <text x="0px" y="0px" style="font-family:'Helvetica';font-size:29.565px;">N</text>
            </g>
        </g>
        <g transform="matrix(0.246189,2.59819,-2.73578,0.23387,415.176,449.908)">
            <g>
                <text x="0px" y="0px" style="font-family:'Helvetica';font-size:29.565px;">o</text>
            </g>
        </g>
        <g transform="matrix(0.330387,2.58971,-2.72689,0.313844,419.402,492.657)">
            <g>
                <text x="0px" y="0px" style="font-family:'Helvetica';font-size:29.566px;">.</text>
            </g>
        </g>
        <g transform="matrix(0.477272,2.569,-2.70504,0.453391,425.022,535.196)">
            <g>
                <text x="0px" y="0px" style="font-family:'Helvetica';font-size:29.565px;">P</text>
            </g>
        </g>
        <g transform="matrix(0.596483,2.54639,-2.68128,0.566622,434.533,585.892)">
            <g>
                <text x="0px" y="0px" style="font-family:'Helvetica';font-size:29.566px;">o</text>
            </g>
        </g>
        <g transform="matrix(0.69977,2.52259,-2.65618,0.664758,444.345,627.589)">
            <g>
                <text x="0px" y="0px" style="font-family:'Helvetica';font-size:29.566px;">s</text>
            </g>
        </g>
        <g transform="matrix(0.299771,0.935902,-0.985468,0.284767,454.701,664.913)">
            <g>
                <text x="0px" y="0px" style="font-family:'Helvetica';font-size:78.841px;">s</text>
            </g>
        </g>
        <g transform="matrix(0.872776,2.47346,-2.60446,0.829083,466.743,701.978)">
            <g>
                <text x="0px" y="0px" style="font-family:'Helvetica';font-size:29.565px;">i</text>
            </g>
        </g>
        <g transform="matrix(0.951389,2.44717,-2.57677,0.903753,472.187,718.059)">
            <g>
                <text x="0px" y="0px" style="font-family:'Helvetica';font-size:29.565px;">b</text>
            </g>
        </g>
        <g transform="matrix(1.03195,2.41755,-2.54556,0.980305,488.08,758.351)">
            <g>
                <text x="0px" y="0px" style="font-family:'Helvetica';font-size:29.565px;">l</text>
            </g>
        </g>
        <g transform="matrix(1.11237,2.38513,-2.51146,1.05669,494.577,774.132)">
            <g>
                <text x="0px" y="0px" style="font-family:'Helvetica';font-size:29.566px;">e</text>
            </g>
        </g>
        <g transform="matrix(1.30605,2.29487,-2.4164,1.24065,522.67,832.945)">
            <g>
                <text x="0px" y="0px" style="font-family:'Helvetica';font-size:29.565px;">D</text>
            </g>
        </g>
        <g transform="matrix(0.540281,0.832863,-0.87696,0.513235,550.637,881.74)">
            <g>
                <text x="0px" y="0px" style="font-family:'Helvetica';font-size:78.84px;">e</text>
            </g>
        </g>
        <g transform="matrix(1.55192,2.15228,-2.26628,1.47425,574.435,918.316)">
            <g>
                <text x="0px" y="0px" style="font-family:'Helvetica';font-size:29.565px;">s</text>
            </g>
        </g>
        <g transform="matrix(1.62655,2.10198,-2.21332,1.54513,597.448,949.928)">
            <g>
                <text x="0px" y="0px" style="font-family:'Helvetica';font-size:29.565px;">i</text>
            </g>
        </g>
        <g transform="matrix(1.70632,2.04414,-2.15239,1.62094,607.963,963.913)">
            <g>
                <text x="0px" y="0px" style="font-family:'Helvetica';font-size:29.565px;">g</text>
            </g>
        </g>
        <g transform="matrix(0.681458,0.7335,-0.77235,0.647353,636,997.499)">
            <g>
                <text x="0px" y="0px" style="font-family:'Helvetica';font-size:78.841px;">n</text>
            </g>
        </g>
        <g transform="matrix(1.98512,1.80277,-1.89824,1.88578,681.379,1045.24)">
            <g>
                <text x="0px" y="0px" style="font-family:'Helvetica';font-size:29.565px;">A</text>
            </g>
        </g>
        <g transform="matrix(2.06337,1.72173,-1.81291,1.96006,720.7,1080.46)">
            <g>
                <text x="0px" y="0px" style="font-family:'Helvetica';font-size:29.565px;">l</text>
            </g>
        </g>
        <g transform="matrix(2.10599,1.67448,-1.76317,2.00058,734.365,1091.88)">
            <g>
                <text x="0px" y="0px" style="font-family:'Helvetica';font-size:29.565px;">t</text>
            </g>
        </g>
        <g transform="matrix(2.17317,1.59519,-1.67966,2.0644,751.469,1105.76)">
            <g>
                <text x="0px" y="0px" style="font-family:'Helvetica';font-size:29.565px;">e</text>
            </g>
        </g>
        <g transform="matrix(2.24033,1.50901,-1.58892,2.12821,787.279,1131.83)">
            <g>
                <text x="0px" y="0px" style="font-family:'Helvetica';font-size:29.565px;">r</text>
            </g>
        </g>
        <g transform="matrix(2.30278,1.42167,-1.49697,2.18753,809.311,1146.87)">
            <g>
                <text x="0px" y="0px" style="font-family:'Helvetica';font-size:29.565px;">n</text>
            </g>
        </g>
        <g transform="matrix(2.37383,1.31202,-1.3815,2.25503,847.225,1170.27)">
            <g>
                <text x="0px" y="0px" style="font-family:'Helvetica';font-size:29.565px;">a</text>
            </g>
        </g>
        <g transform="matrix(2.42193,1.23018,-1.29534,2.3007,886.357,1191.66)">
            <g>
                <text x="0px" y="0px" style="font-family:'Helvetica';font-size:29.565px;">t</text>
            </g>
        </g>
        <g transform="matrix(2.44855,1.18167,-1.24426,2.326,906.226,1201.73)">
            <g>
                <text x="0px" y="0px" style="font-family:'Helvetica';font-size:29.565px;">i</text>
            </g>
        </g>
        <g transform="matrix(2.48432,1.11225,-1.17114,2.36,922.115,1209.58)">
            <g>
                <text x="0px" y="0px" style="font-family:'Helvetica';font-size:29.565px;">v</text>
            </g>
        </g>
        <g transform="matrix(2.53142,1.01193,-1.06549,2.40475,958.855,1226.07)">
            <g>
                <text x="0px" y="0px" style="font-family:'Helvetica';font-size:29.565px;">e</text>
            </g>
        </g>
        <g transform="matrix(2.57247,0.913757,-0.962161,2.44372,1000.71,1242.74)">
            <g>
                <text x="0px" y="0px" style="font-family:'Helvetica';font-size:29.565px;">s</text>
            </g>
        </g>
        <g transform="matrix(1.03006,0,0,0.978383,2368.08,1661.43)">
            <text x="0px" y="0px" style="font-family:'Arial-ItalicMT', 'Arial', sans-serif;font-style:italic;font-size:93.333px;">t</text>
        </g>
    </g>
</svg>
