<?xml version="1.0" encoding="UTF-8" standalone="no"?>
<!DOCTYPE svg PUBLIC "-//W3C//DTD SVG 1.1//EN" "http://www.w3.org/Graphics/SVG/1.1/DTD/svg11.dtd">
<svg width="100%" height="100%" viewBox="0 0 1289 439" version="1.1" xmlns="http://www.w3.org/2000/svg" xmlns:xlink="http://www.w3.org/1999/xlink" xml:space="preserve" xmlns:serif="http://www.serif.com/" style="fill-rule:evenodd;clip-rule:evenodd;stroke-miterlimit:10;">
    <g transform="matrix(2.63583,0.000540684,-0.000540684,2.63583,-144.879,-169.725)">
        <path d="M475.922,151.918L514.922,151.918" style="fill:none;fill-rule:nonzero;stroke:black;stroke-width:1px;stroke-dasharray:1.42,1.42;"/>
    </g>
    <g transform="matrix(2.63583,0.000236892,-0.000236892,2.63583,-144.936,-169.527)">
        <path d="M80.355,106.922L514.297,106.922" style="fill:none;fill-rule:nonzero;stroke:black;stroke-width:1px;stroke-dasharray:1.42,1.42;"/>
    </g>
    <g transform="matrix(2.63583,0.000236892,-0.000236892,2.63583,-144.915,-169.527)">
        <path d="M80.355,194.68L514.297,194.68" style="fill:none;fill-rule:nonzero;stroke:black;stroke-width:1px;stroke-dasharray:1.42,1.42;"/>
    </g>
    <g transform="matrix(1,0,0,1,-58.6942,-546.507)">
        <text x="126.422px" y="644.257px" style="font-family:'Helvetica';font-size:38.108px;">T<tspan x="147.571px 166.636px 185.701px 204.767px 215.328px " y="644.257px 644.257px 644.257px 644.257px 644.257px ">heory</tspan></text>
        <text x="126.422px" y="762.824px" style="font-family:'Helvetica';font-size:38.108px;">D<tspan x="152.23px 171.712px 189.054px 195.808px 215.29px " y="762.824px 762.824px 762.824px 762.824px 762.824px ">esign</tspan></text>
        <g transform="matrix(38.1079,0,0,38.1079,315.367,876.348)">
        </g>
        <text x="126.422px" y="876.348px" style="font-family:'Helvetica';font-size:38.108px;">O<tspan x="154.412px 173.954px 191.356px 210.898px 221.937px 239.339px 258.881px 267.817px 274.631px 294.173px " y="876.348px 876.348px 876.348px 876.348px 876.348px 876.348px 876.348px 876.348px 876.348px 876.348px ">bservation</tspan></text>
    </g>
    <g transform="matrix(2.63583,-0.000736813,0.000736813,2.63583,-145.073,-169.351)">
        <path d="M80.719,151.784L205.926,151.784" style="fill:none;fill-rule:nonzero;stroke:black;stroke-width:1px;"/>
    </g>
    <g transform="matrix(-2.44733,0.978865,-0.978865,-2.44733,1059.4,398.687)">
        <path d="M204.399,150.447L212.065,150.447L209.357,152.43L209.955,155.732L204.399,150.447Z" style="stroke:black;stroke-width:1px;"/>
    </g>
    <g transform="matrix(2.22035,1.42044,-1.42044,2.22035,132.729,-447.074)">
        <path d="M213.247,127.426L252.186,127.426" style="fill:none;fill-rule:nonzero;stroke:black;stroke-width:1px;"/>
    </g>
    <g transform="matrix(-2.58901,-0.494619,0.494619,-2.58901,1092.37,673.459)">
        <path d="M245.568,135.321L253.231,135.321L250.524,137.301L251.12,140.607L245.568,135.321Z" style="stroke:black;stroke-width:1px;"/>
    </g>
    <g transform="matrix(2.22229,-1.4174,1.4174,2.22229,-214.933,304.255)">
        <path d="M282.876,135.353L306.565,135.354" style="fill:none;fill-rule:nonzero;stroke:black;stroke-width:1px;"/>
    </g>
    <g transform="matrix(-1.53686,2.14142,-2.14142,-1.53686,1406.28,-284.314)">
        <path d="M300.716,127.983L308.381,127.983L305.673,129.965L306.266,133.27L300.716,127.983Z" style="stroke:black;stroke-width:1px;"/>
    </g>
    <g transform="matrix(2.21727,-1.42525,1.42525,2.21727,-289.117,241.672)">
        <path d="M228.125,171.101L248.297,171.101" style="fill:none;fill-rule:nonzero;stroke:black;stroke-width:1px;"/>
    </g>
    <g transform="matrix(-1.52853,2.14737,-2.14737,-1.52853,1241.61,-9.95811)">
        <path d="M242.696,164.631L250.363,164.631L247.651,166.615L248.243,169.918L242.696,164.631Z" style="stroke:black;stroke-width:1px;"/>
    </g>
    <g transform="matrix(2.22477,1.41351,-1.41351,2.22477,195.877,-648.3)">
        <path d="M365.439,131.494L388.565,131.494" style="fill:none;fill-rule:nonzero;stroke:black;stroke-width:1px;"/>
    </g>
    <g transform="matrix(-2.59058,-0.486335,0.486335,-2.59058,1813.43,737.366)">
        <path d="M383.225,135.088L390.889,135.088L388.18,137.072L388.776,140.374L383.225,135.088Z" style="stroke:black;stroke-width:1px;"/>
    </g>
    <g transform="matrix(2.22302,-1.41626,1.41626,2.22302,-238.991,429.74)">
        <path d="M354.767,174.858L389.467,174.858" style="fill:none;fill-rule:nonzero;stroke:black;stroke-width:1px;"/>
    </g>
    <g transform="matrix(-1.53842,2.1403,-2.1403,-1.53842,1827.32,-306.79)">
        <path d="M382.761,164.536L390.425,164.536L387.718,166.52L388.314,169.825L382.761,164.536Z" style="stroke:black;stroke-width:1px;"/>
    </g>
    <g transform="matrix(2.22966,-1.40579,1.40579,2.22966,-142.176,511.034)">
        <path d="M420.865,127.256L473.725,127.256" style="fill:none;fill-rule:nonzero;stroke:black;stroke-width:1px;"/>
    </g>
    <g transform="matrix(-1.54869,2.13288,-2.13288,-1.54869,2065.33,-698.176)">
        <path d="M465.674,112.187L473.34,112.187L470.631,114.168L471.225,117.473L465.674,112.187Z" style="stroke:black;stroke-width:1px;"/>
    </g>
    <g transform="matrix(2.63583,-0.000311675,0.000311675,2.63583,-145.008,-169.353)">
        <path d="M316.508,151.834L350.336,151.834" style="fill:none;fill-rule:nonzero;stroke:black;stroke-width:1px;"/>
    </g>
    <g transform="matrix(-2.44717,0.97928,-0.97928,-2.44717,1793.52,257.498)">
        <path d="M348.809,150.514L356.475,150.514L353.763,152.496L354.36,155.798L348.809,150.514Z" style="stroke:black;stroke-width:1px;"/>
    </g>
    <g transform="matrix(2.63583,-0.00471227,0.00471227,2.63583,-145.675,-167.288)">
        <path d="M451.473,151.817L468.813,151.817" style="fill:none;fill-rule:nonzero;stroke:black;stroke-width:1px;"/>
    </g>
    <g transform="matrix(-2.44567,0.983013,-0.983013,-2.44567,2395.57,139.343)">
        <path d="M467.28,150.487L474.946,150.487L472.237,152.47L472.833,155.775L467.28,150.487Z" style="stroke:black;stroke-width:1px;"/>
    </g>
    <g transform="matrix(2.23108,1.40354,-1.40354,2.23108,283.241,-726.077)">
        <path d="M420.662,176.076L474.061,176.076" style="fill:none;fill-rule:nonzero;stroke:black;stroke-width:1px;"/>
    </g>
    <g transform="matrix(-2.59281,-0.474266,0.474266,-2.59281,2226.08,1047.4)">
        <path d="M466.442,187.663L474.106,187.663L471.395,189.644L471.992,192.95L466.442,187.663Z" style="stroke:black;stroke-width:1px;"/>
    </g>
    <g transform="matrix(2.23399,1.39889,-1.39889,2.23399,215.76,-522.695)">
        <path d="M284.307,171.2L319.076,171.2" style="fill:none;fill-rule:nonzero;stroke:black;stroke-width:1px;"/>
    </g>
    <g transform="matrix(-2.59387,-0.468457,0.468457,-2.59387,1429.4,921.322)">
        <path d="M312.916,177.786L320.585,177.786L317.874,179.768L318.467,183.076L312.916,177.786Z" style="stroke:black;stroke-width:1px;"/>
    </g>
    <g transform="matrix(2.63583,0,0,-2.63583,-144.961,393.797)">
        <rect x="168.602" y="96.691" width="62.566" height="20.309" style="fill:white;stroke:black;stroke-width:1px;"/>
    </g>
    <g transform="matrix(2.63583,0,0,-2.63583,-144.961,857.118)">
        <rect x="168.602" y="176.461" width="62.566" height="36.547" style="fill:white;stroke:black;stroke-width:1px;"/>
    </g>
    <g transform="matrix(2.63583,0,0,-2.63583,-144.961,394.53)">
        <rect x="304.879" y="88.711" width="68.328" height="36.547" style="fill:white;stroke:black;stroke-width:1px;"/>
    </g>
    <g transform="matrix(2.63583,0,0,-2.63583,-144.961,630.611)">
        <rect x="212.223" y="141.613" width="104.207" height="20.309" style="fill:white;stroke:black;stroke-width:1px;"/>
    </g>
    <g transform="matrix(2.63583,0,0,-2.63583,-144.961,629.973)">
        <rect x="356.914" y="141.492" width="94.371" height="20.309" style="fill:white;stroke:black;stroke-width:1px;"/>
    </g>
    <g transform="matrix(2.63583,0,0,-2.63583,-144.961,855.5)">
        <rect x="287.324" y="184.273" width="105.047" height="20.309" style="fill:white;stroke:black;stroke-width:1px;"/>
    </g>
    <g transform="matrix(1,0,0,1,126.104,-524.706)">
        <g transform="matrix(38.1079,0,0,38.1079,324.641,651.142)">
        </g>
        <text x="184.78px" y="651.142px" style="font-family:'Helvetica';font-size:38.108px;">M<tspan x="217.61px 248.337px 276.944px 303.448px " y="651.142px 651.142px 651.142px 651.142px ">ODEL</tspan></text>
    </g>
    <g transform="matrix(1,0,0,1,130.995,-366.756)">
        <text x="195.261px" y="701.021px" style="font-family:'Helvetica';font-size:38.108px;">FIELD</text>
        <g transform="matrix(38.1079,0,0,38.1079,314.1,748.67)">
        </g>
        <text x="186.324px" y="748.67px" style="font-family:'Helvetica';font-size:38.108px;">S<tspan x="211.397px 234.33px 261.506px 288.682px " y="748.67px 748.67px 748.67px 748.67px ">TUDY</tspan></text>
    </g>
    <g transform="matrix(1,0,0,1,214.458,-542.548)">
        <text x="452.696px" y="645.508px" style="font-family:'Helvetica';font-size:38.108px;">R<tspan x="478.953px 503.107px 527.261px 536.584px 560.738px 584.892px " y="645.508px 645.508px 645.508px 645.508px 645.508px 645.508px ">EVISED</tspan></text>
        <text x="462.591px" y="693.157px" style="font-family:'Helvetica';font-size:38.108px;">M<tspan x="495.421px 526.149px 554.755px 581.259px " y="693.157px 693.157px 693.157px 693.157px ">ODEL</tspan></text>
        <g transform="matrix(38.1079,0,0,38.1079,457.53,787.349)">
        </g>
        <text x="212.681px" y="787.349px" style="font-family:'Helvetica';font-size:38.108px;">S<tspan x="239.737px 251.964px 285.347px 314.506px 337.339px 361.586px 386.503px 398.73px 430.01px " y="787.349px 787.349px 787.349px 787.349px 787.349px 787.349px 787.349px 787.349px 787.349px ">IMULATION</tspan></text>
    </g>
    <g transform="matrix(1,0,0,1,502.986,-434.968)">
        <g transform="matrix(38.1079,0,0,38.1079,532.594,679.48)">
        </g>
        <text x="303.795px" y="679.48px" style="font-family:'Helvetica';font-size:38.108px;">P<tspan x="328.518px 355.343px 384.289px 406.202px 435.149px 457.731px 482.454px 507.177px " y="679.48px 679.48px 679.48px 679.48px 679.48px 679.48px 679.48px 679.48px ">ROTOTYPE</tspan></text>
    </g>
    <g transform="matrix(1,0,0,1,361.374,-349.267)">
        <g transform="matrix(38.1079,0,0,38.1079,515.472,706.544)">
        </g>
        <text x="259.076px" y="706.544px" style="font-family:'Helvetica';font-size:38.108px;">E<tspan x="286.783px 311.68px 339.387px 362.87px 392.679px 417.577px 443.144px 456.021px 487.952px " y="706.544px 706.544px 706.544px 706.544px 706.544px 706.544px 706.544px 706.544px 706.544px ">VALUATION</tspan></text>
    </g>
</svg>
